HIERARCHY
ROOT Hips
{
  OFFSET 0.382225 96.6805 0.598322
  CHANNELS 6 Xposition Yposition Zposition Zrotation Xrotation Yrotation
  JOINT Spine
  {
    OFFSET 10.8089 -0.851416 0
    CHANNELS 3 Zrotation Xrotation Yrotation
    JOINT Spine1
    {
      OFFSET 18.8753 3.80116 0
      CHANNELS 3 Zrotation Xrotation Yrotation
      JOINT Spine2
      {
        OFFSET 13.4073 0.420477 0
        CHANNELS 3 Zrotation Xrotation Yrotation
        JOINT LeftShoulder
        {
          OFFSET 11.8837 -2.73209 -3.78198
          CHANNELS 3 Zrotation Xrotation Yrotation
          JOINT LeftArm
          {
            OFFSET 15.7849 0 -2.35849e-005
            CHANNELS 3 Zrotation Xrotation Yrotation
            JOINT LeftForeArm
            {
              OFFSET 30.3399 0 0
              CHANNELS 3 Zrotation Xrotation Yrotation
              JOINT LeftHand
              {
                OFFSET 26.9751 0 2.45913e-005
                CHANNELS 3 Zrotation Xrotation Yrotation
                End Site
                {
                  OFFSET 8 0 0
                }
              }
            }
          }
        }
        JOINT RightShoulder
        {
          OFFSET 11.8838 -2.7321 3.782
          CHANNELS 3 Zrotation Xrotation Yrotation
          JOINT RightArm
          {
            OFFSET -15.7848 0 -1.07056e-005
            CHANNELS 3 Zrotation Xrotation Yrotation
            JOINT RightForeArm
            {
              OFFSET -30.34 1.02096e-005 -2.53607e-005
              CHANNELS 3 Zrotation Xrotation Yrotation
              JOINT RightHand
              {
                OFFSET -26.9752 2.07668e-005 0
                CHANNELS 3 Zrotation Xrotation Yrotation
                End Site
                {
                  OFFSET -8 0 0
                }
              }
            }
          }
        }
        JOINT Neck
        {
          OFFSET 16.5588 -0.355318 0
          CHANNELS 3 Zrotation Xrotation Yrotation
          JOINT Head
          {
            OFFSET 9.28361 0.364157 0
            CHANNELS 3 Zrotation Xrotation Yrotation
            End Site
            {
              OFFSET 0 0 0
            }
          }
        }
      }
    }
  }
  JOINT LeftUpLeg
  {
    OFFSET -1.44883 -0.531424 -9.00581
    CHANNELS 3 Zrotation Xrotation Yrotation
    JOINT LeftLeg
    {
      OFFSET -42.572 0.0788889 -0.011964
      CHANNELS 3 Zrotation Xrotation Yrotation
      JOINT LeftFoot
      {
        OFFSET -40.1967 0 0
        CHANNELS 3 Zrotation Xrotation Yrotation
				JOINT LeftToe
        {
          OFFSET -10.4538 -16.5779 0.0801563
          CHANNELS 3 Zrotation Xrotation Yrotation
          End Site
          {
            OFFSET -1.0 -1.0 0.0
          }
        }
      }
    }
  }
  JOINT RightUpLeg
  {
    OFFSET -1.44865 -0.531427 9.0058
    CHANNELS 3 Zrotation Xrotation Yrotation
    JOINT RightLeg
    {
      OFFSET 42.5723 -3.24776e-005 0
      CHANNELS 3 Zrotation Xrotation Yrotation
      JOINT RightFoot
      {
        OFFSET 40.1968 0 -1.14003e-005
        CHANNELS 3 Zrotation Xrotation Yrotation
				JOINT RightToe
        {
          OFFSET 10.4538 16.5778 -0.0801573
          CHANNELS 3 Zrotation Xrotation Yrotation
          End Site
          {
            OFFSET -1.0 -1.0 0.0
          }
        }
      }
    }
  }
}
MOTION
Frames:	8
Frame Time:	0.0333333
60.4574 93.2955 3.24896 -82.2634 60.5306 171.101 -18.4174 1.85542 1.90257 15.1932 -0.0561928 -0.108325 2.7794 1.93418e-006 1.65929e-005 -3.4259 14.2051 88.7853 -20.3372 2.33445 62.9181 -73.8971 7.29279 -19.349 -83.6514 -54.7024 -78.7883 -177.423 4.34007 76.5669 -52.2367 -37.5253 61.4013 -107.829 -7.57982 -8.40258 -164.204 -72.4348 -154.966 -23.508 4.63459e-006 -5.90926e-006 7.79478 31.8524 13.8606 26.3139 40.6562 -21.901 -4.42684 -5.96284 2.18146 -15.8258 0.113295 10.4551 -90 0 0 -151.611 19.2545 -13.9695 -36.8509 -4.22645 -2.33771 14.1342 -2.16203 8.62391 -90 0 0
59.795 93.0209 3.59872 -82.5585 60.6648 170.931 -19.1884 2.94676 2.04746 15.1055 -0.0596671 -0.0999661 2.7794 1.93418e-006 1.65929e-005 -3.54982 14.0649 89.8369 -20.7164 2.19406 62.8858 -74.0309 7.36329 -19.3668 -84.8663 -54.759 -79.8202 -177.315 3.78377 75.9305 -51.763 -37.6182 61.2882 -109.978 -7.4365 -8.53645 -166.139 -72.9317 -156.203 -23.508 4.63459e-006 -5.90926e-006 7.14606 31.2864 15.7761 28.3558 39.1119 -22.2539 -10.1729 -5.98144 1.45586 -12.657 1.17629 10.0462 -90 0 0 -149.87 19.7141 -16.5071 -39.3826 -3.94668 -2.66652 14.8193 2.63512 4.17406 -90 0 0
59.3805 92.5946 3.56238 -83.2337 60.4744 171.219 -19.6488 4.13351 1.94001 15.1058 -0.062117 -0.10001 2.7794 1.93418e-006 1.65929e-005 -3.66755 14.5019 90.3316 -21.3525 2.24481 64.2177 -74.5673 7.64636 -19.4362 -85.0892 -55.0238 -80.0052 -177.293 3.2648 75.751 -51.804 -37.8197 60.5078 -110.403 -7.4076 -8.56226 -168.523 -72.5659 -158.297 -23.508 4.63459e-006 -5.90926e-006 6.08424 30.4517 17.1461 30.9904 38.3441 -23.4435 -15.8876 -5.91906 0.745859 -9.90372 0.881632 10.083 -90 0 0 -150.863 17.1573 -17.6731 -40.99 -3.81581 -2.86983 13.9324 1.3376 5.69503 -90 0 0
59.3936 91.9306 3.2891 -83.316 59.8877 171.246 -19.5212 5.09274 1.75682 15.2209 -0.0627833 -0.110977 2.7794 1.93418e-006 1.65929e-005 -3.7322 14.8281 90.4979 -21.6789 2.95036 65.5179 -75.6721 8.23138 -19.571 -84.5238 -55.4577 -79.2023 -177.298 3.05394 75.7544 -51.8452 -38.2711 59.7699 -109.63 -7.46004 -8.51511 -167.923 -73.1783 -157.727 -23.508 4.63459e-006 -5.90926e-006 5.93126 29.4429 17.3195 34.6695 38.1729 -25.5479 -21.0815 -5.78898 0.153635 -7.78212 -0.616624 9.95062 -90 0 0 -152.915 15.9569 -18.1077 -39.3861 -4.00291 -2.66244 16.15 -0.625396 9.77695 -90 0 0
59.5878 91.2532 2.91524 -84.1162 59.2412 172.002 -19.9098 5.49662 1.48211 15.286 -0.060907 -0.117197 2.7794 1.93418e-006 1.65929e-005 -3.86123 15.1748 91.075 -21.4795 3.64597 65.8013 -76.5734 8.71034 -19.6726 -84.752 -55.7804 -79.4151 -177.328 2.91482 75.92 -51.9054 -38.5576 58.8351 -109.127 -7.49387 -8.48409 -166.678 -73.9812 -156.298 -23.508 4.63459e-006 -5.90926e-006 6.82252 29.0598 17.168 37.0379 37.2812 -27.1828 -25.1388 -5.64575 -0.199454 -6.15458 -1.52458 10.0801 -90 0 0 -153.535 15.5458 -17.6236 -40.5065 -3.87859 -2.80421 18.6806 0.720429 9.11884 -90 0 0
59.6761 90.7571 2.77347 -84.8215 59.2405 172.283 -20.4906 5.5504 1.58536 15.1287 -0.0529271 -0.102183 2.7794 1.93418e-006 1.65929e-005 -3.9763 15.6086 91.4344 -20.9272 3.87794 66.0075 -76.5614 8.70396 -19.6713 -85.3429 -55.9416 -80.0511 -177.271 2.61256 75.515 -51.4097 -38.8523 58.9254 -109.124 -7.49403 -8.48389 -167.317 -73.3847 -156.998 -23.508 4.63459e-006 -5.90926e-006 7.61252 29.4083 17.294 37.7569 36.3931 -27.5345 -27.7743 -5.53583 -0.385064 -5.02422 -1.17597 10.3284 -90 0 0 -152.574 14.6737 -17.7474 -43.3711 -3.5805 -3.1628 19.8363 1.46925 8.48736 -90 0 0
59.7244 90.3158 2.50759 -85.4764 58.7618 172.379 -20.6633 4.91118 1.81064 14.92 -0.042415 -0.0822354 2.7794 1.93418e-006 1.65929e-005 -3.923 15.3153 91.3576 -20.2796 4.43637 65.9679 -76.0431 8.42841 -19.6138 -85.3472 -55.9709 -80.157 -177.223 2.92157 75.2735 -51.1425 -38.7189 59.3343 -109.257 -7.48494 -8.48988 -166.614 -73.135 -156.272 -23.508 4.63459e-006 -5.90926e-006 7.51478 29.4694 17.2954 37.5859 35.0309 -26.9236 -29.6535 -5.45236 -0.509869 -4.13033 -0.424122 10.6571 -90 0 0 -152.203 14.6431 -18.4463 -44.9832 -3.4077 -3.3571 21.1388 1.50553 8.70657 -90 0 0
59.8014 90.0142 2.25435 -85.6949 58.2791 172.343 -20.8099 4.30952 1.85718 15.0334 -0.0481244 -0.0930727 2.7794 1.93418e-006 1.65929e-005 -3.92342 15.1389 91.5326 -20.3056 4.89792 65.3216 -75.3156 8.04234 -19.5287 -84.9307 -55.8873 -79.631 -177.224 3.53731 75.3744 -51.3504 -38.1364 59.3346 -109.299 -7.48236 -8.4947 -165.833 -73.3188 -155.342 -23.508 4.63459e-006 -5.90926e-006 7.00241 29.4571 17.4582 38.1366 34.675 -27.1066 -30.9123 -5.39978 -0.596732 -3.80444 -0.83886 11.0249 -90 0 0 -152.101 14.5534 -18.6986 -45.914 -3.30481 -3.46687 22.1096 1.81637 8.89227 -90 0 0
